<svg width="16" height="16" viewBox="0 0 16 16" fill="none" xmlns="http://www.w3.org/2000/svg">
<path d="M5.48487 6.879C5.47024 6.81399 5.44277 6.75256 5.40406 6.69832C5.36535 6.64408 5.31619 6.59813 5.25947 6.56316C5.20275 6.52819 5.13961 6.50491 5.07376 6.49469C5.00792 6.48447 4.94069 6.48751 4.87604 6.50364C4.81138 6.51977 4.75061 6.54866 4.69728 6.58861C4.64395 6.62857 4.59914 6.67878 4.5655 6.73629C4.53185 6.79381 4.51004 6.85747 4.50134 6.92354C4.49265 6.9896 4.49725 7.05674 4.51487 7.121L6.01487 13.121C6.04188 13.2281 6.10359 13.3232 6.19036 13.3915C6.27713 13.4599 6.38408 13.4975 6.49452 13.4987C6.60496 13.4998 6.71266 13.4644 6.80083 13.3979C6.88899 13.3313 6.95265 13.2375 6.98187 13.131L7.99987 9.402L9.01787 13.132C9.04709 13.2385 9.11075 13.3323 9.19892 13.3989C9.28708 13.4654 9.39479 13.5008 9.50523 13.4997C9.61566 13.4985 9.72261 13.4609 9.80938 13.3925C9.89616 13.3242 9.95786 13.2291 9.98487 13.122L11.4849 7.122C11.5135 6.99458 11.4912 6.86101 11.4227 6.74983C11.3541 6.63866 11.2448 6.55872 11.1181 6.5271C10.9914 6.49549 10.8573 6.51471 10.7446 6.58066C10.6319 6.64661 10.5494 6.75405 10.5149 6.88L9.47887 11.024L8.48187 7.369C8.45277 7.2635 8.38986 7.17046 8.3028 7.10416C8.21573 7.03786 8.10931 7.00195 7.99987 7.00195C7.89043 7.00195 7.78402 7.03786 7.69695 7.10416C7.60988 7.17046 7.54697 7.2635 7.51787 7.369L6.52087 11.024L5.48487 6.88V6.879Z" fill="#707070"/>
<path d="M14 14V4.5L9.5 0H4C3.46957 0 2.96086 0.210714 2.58579 0.585786C2.21071 0.960859 2 1.46957 2 2V14C2 14.5304 2.21071 15.0391 2.58579 15.4142C2.96086 15.7893 3.46957 16 4 16H12C12.5304 16 13.0391 15.7893 13.4142 15.4142C13.7893 15.0391 14 14.5304 14 14ZM9.5 3C9.5 3.39782 9.65804 3.77936 9.93934 4.06066C10.2206 4.34196 10.6022 4.5 11 4.5H13V14C13 14.2652 12.8946 14.5196 12.7071 14.7071C12.5196 14.8946 12.2652 15 12 15H4C3.73478 15 3.48043 14.8946 3.29289 14.7071C3.10536 14.5196 3 14.2652 3 14V2C3 1.73478 3.10536 1.48043 3.29289 1.29289C3.48043 1.10536 3.73478 1 4 1H9.5V3Z" fill="#707070"/>
</svg>
