<svg width="240" height="48" viewBox="0 0 240 48" fill="none" xmlns="http://www.w3.org/2000/svg">
<g clip-path="url(#clip0)">
<path d="M59.4283 8.68265V11.52H54.9696V23.4667H51.6416V11.52H47.1829V8.68265H59.4283ZM66.6373 15.0613C66.3529 14.9902 66.0187 14.9191 65.6347 14.848C65.2507 14.7627 64.8382 14.72 64.3973 14.72C64.1982 14.72 63.9564 14.7413 63.672 14.784C63.4017 14.8125 63.1955 14.848 63.0533 14.8907V23.4667H59.8747V12.8427C60.4435 12.6435 61.112 12.4587 61.88 12.288C62.6622 12.1031 63.5297 12.0107 64.4827 12.0107C64.6533 12.0107 64.8595 12.0248 65.1013 12.0533C65.343 12.0675 65.5849 12.096 65.8267 12.1387C66.0684 12.1671 66.3102 12.2098 66.552 12.2667C66.7937 12.3093 67 12.3662 67.1707 12.4373L66.6373 15.0613ZM72.0533 23.4667H68.8747V12.2453H72.0533V23.4667ZM72.352 9.00265C72.352 9.58577 72.16 10.048 71.776 10.3893C71.4062 10.7165 70.9653 10.88 70.4533 10.88C69.9413 10.88 69.4933 10.7165 69.1093 10.3893C68.7395 10.048 68.5547 9.58577 68.5547 9.00265C68.5547 8.41954 68.7395 7.96444 69.1093 7.63732C69.4933 7.29599 69.9413 7.12532 70.4533 7.12532C70.9653 7.12532 71.4062 7.29599 71.776 7.63732C72.16 7.96444 72.352 8.41954 72.352 9.00265ZM82.2306 17.7707C82.2306 15.7227 81.4769 14.6987 79.9693 14.6987C79.6422 14.6987 79.3151 14.7413 78.988 14.8267C78.6751 14.912 78.4191 15.0187 78.22 15.1467V20.928C78.3764 20.9565 78.5756 20.9848 78.8173 21.0133C79.0591 21.0275 79.3223 21.0347 79.6066 21.0347C80.4743 21.0347 81.1284 20.736 81.5693 20.1387C82.0102 19.5413 82.2306 18.752 82.2306 17.7707ZM85.4733 17.856C85.4733 18.752 85.3382 19.5627 85.068 20.288C84.812 21.0133 84.4351 21.632 83.9373 22.144C83.4396 22.656 82.828 23.0542 82.1026 23.3387C81.3773 23.6088 80.5524 23.744 79.628 23.744C79.244 23.744 78.8386 23.7227 78.412 23.68C77.9996 23.6515 77.5871 23.6088 77.1746 23.552C76.7764 23.4951 76.3924 23.4311 76.0226 23.36C75.6529 23.2747 75.3258 23.1893 75.0413 23.104V7.42399L78.22 6.91199V12.5013C78.5756 12.3448 78.9453 12.224 79.3293 12.1387C79.7133 12.0533 80.1258 12.0107 80.5666 12.0107C81.3631 12.0107 82.0671 12.1528 82.6786 12.4373C83.2902 12.7075 83.8022 13.0987 84.2146 13.6107C84.6271 14.1227 84.94 14.7413 85.1533 15.4667C85.3666 16.1778 85.4733 16.9742 85.4733 17.856ZM97.4949 23.0827C96.9546 23.2391 96.2576 23.3813 95.4043 23.5093C94.5509 23.6515 93.6549 23.7227 92.7163 23.7227C91.7634 23.7227 90.9669 23.5947 90.3269 23.3387C89.7012 23.0827 89.2034 22.7271 88.8336 22.272C88.4639 21.8027 88.2008 21.248 88.0443 20.608C87.8879 19.968 87.8096 19.264 87.8096 18.496V12.2453H90.9883V18.112C90.9883 19.136 91.1234 19.8755 91.3936 20.3307C91.6639 20.7858 92.1688 21.0133 92.9083 21.0133C93.1359 21.0133 93.3776 21.0062 93.6336 20.992C93.8896 20.9635 94.1172 20.9351 94.3163 20.9067V12.2453H97.4949V23.0827ZM100.479 12.6293C101.019 12.4728 101.716 12.3307 102.57 12.2027C103.423 12.0605 104.319 11.9893 105.258 11.9893C106.21 11.9893 107 12.1173 107.626 12.3733C108.266 12.6151 108.77 12.9635 109.14 13.4187C109.51 13.8738 109.773 14.4142 109.93 15.04C110.086 15.6658 110.164 16.3627 110.164 17.1307V23.4667H106.986V17.5147C106.986 16.4907 106.85 15.7653 106.58 15.3387C106.31 14.912 105.805 14.6987 105.066 14.6987C104.838 14.6987 104.596 14.7128 104.34 14.7413C104.084 14.7555 103.857 14.7768 103.658 14.8053V23.4667H100.479V12.6293ZM117.329 21.248C117.643 21.248 117.941 21.2408 118.225 21.2267C118.51 21.2125 118.737 21.1911 118.908 21.1627V18.752C118.78 18.7235 118.588 18.6951 118.332 18.6667C118.076 18.6382 117.841 18.624 117.628 18.624C117.329 18.624 117.045 18.6453 116.774 18.688C116.518 18.7165 116.291 18.7805 116.092 18.88C115.893 18.9795 115.737 19.1147 115.622 19.2853C115.509 19.456 115.452 19.6693 115.452 19.9253C115.452 20.4231 115.616 20.7715 115.942 20.9707C116.284 21.1555 116.747 21.248 117.329 21.248ZM117.073 11.9467C118.012 11.9467 118.795 12.0533 119.42 12.2667C120.046 12.48 120.544 12.7858 120.913 13.184C121.297 13.5822 121.568 14.0658 121.724 14.6347C121.881 15.2035 121.958 15.8365 121.958 16.5333V23.1467C121.504 23.2462 120.87 23.36 120.06 23.488C119.249 23.6302 118.268 23.7013 117.116 23.7013C116.39 23.7013 115.729 23.6373 115.132 23.5093C114.549 23.3813 114.044 23.1751 113.617 22.8907C113.19 22.592 112.864 22.208 112.636 21.7387C112.409 21.2693 112.294 20.6933 112.294 20.0107C112.294 19.3565 112.422 18.8018 112.678 18.3467C112.949 17.8915 113.305 17.5288 113.745 17.2587C114.187 16.9885 114.691 16.7965 115.26 16.6827C115.829 16.5547 116.419 16.4907 117.03 16.4907C117.443 16.4907 117.806 16.512 118.118 16.5547C118.446 16.5831 118.709 16.6258 118.908 16.6827V16.384C118.908 15.8435 118.745 15.4098 118.417 15.0827C118.091 14.7555 117.521 14.592 116.71 14.592C116.171 14.592 115.637 14.6347 115.11 14.72C114.585 14.7911 114.129 14.8978 113.745 15.04L113.34 12.48C113.525 12.4231 113.753 12.3662 114.022 12.3093C114.307 12.2382 114.613 12.1813 114.94 12.1387C115.267 12.0818 115.609 12.0391 115.964 12.0107C116.334 11.968 116.704 11.9467 117.073 11.9467ZM129.313 23.68C128.388 23.6658 127.635 23.5662 127.052 23.3813C126.483 23.1965 126.028 22.9405 125.686 22.6133C125.359 22.272 125.132 21.8667 125.004 21.3973C124.89 20.9138 124.833 20.3733 124.833 19.776V7.42399L128.012 6.91199V19.136C128.012 19.4205 128.033 19.6765 128.076 19.904C128.118 20.1315 128.196 20.3235 128.31 20.48C128.438 20.6365 128.617 20.7645 128.844 20.864C129.071 20.9635 129.377 21.0275 129.761 21.056L129.313 23.68ZM139.418 17.7707C139.418 18.752 139.637 19.5413 140.079 20.1387C140.519 20.736 141.173 21.0347 142.042 21.0347C142.325 21.0347 142.589 21.0275 142.831 21.0133C143.072 20.9848 143.271 20.9565 143.428 20.928V15.1467C143.229 15.0187 142.965 14.912 142.639 14.8267C142.325 14.7413 142.005 14.6987 141.679 14.6987C140.171 14.6987 139.418 15.7227 139.418 17.7707ZM146.607 23.104C146.322 23.1893 145.995 23.2747 145.626 23.36C145.255 23.4311 144.864 23.4951 144.452 23.552C144.053 23.6088 143.642 23.6515 143.215 23.68C142.802 23.7227 142.404 23.744 142.02 23.744C141.095 23.744 140.271 23.6088 139.546 23.3387C138.82 23.0685 138.208 22.6845 137.711 22.1867C137.213 21.6747 136.829 21.0631 136.559 20.352C136.303 19.6267 136.175 18.816 136.175 17.92C136.175 17.0098 136.288 16.192 136.516 15.4667C136.743 14.7271 137.071 14.1013 137.498 13.5893C137.924 13.0773 138.443 12.6862 139.055 12.416C139.68 12.1458 140.391 12.0107 141.188 12.0107C141.629 12.0107 142.02 12.0533 142.362 12.1387C142.717 12.224 143.072 12.3448 143.428 12.5013V7.42399L146.607 6.91199V23.104ZM149.05 17.9413C149.05 16.9458 149.199 16.0782 149.498 15.3387C149.81 14.5848 150.215 13.9591 150.714 13.4613C151.212 12.9635 151.78 12.5867 152.42 12.3307C153.074 12.0747 153.743 11.9467 154.426 11.9467C156.018 11.9467 157.277 12.4373 158.202 13.4187C159.126 14.3858 159.588 15.8151 159.588 17.7067C159.588 17.8915 159.581 18.0978 159.567 18.3253C159.553 18.5387 159.538 18.7307 159.524 18.9013H152.314C152.385 19.5555 152.69 20.0747 153.231 20.4587C153.772 20.8427 154.497 21.0347 155.407 21.0347C155.99 21.0347 156.559 20.9848 157.114 20.8853C157.682 20.7715 158.145 20.6365 158.5 20.48L158.927 23.0613C158.756 23.1467 158.529 23.232 158.244 23.3173C157.959 23.4027 157.639 23.4738 157.284 23.5307C156.943 23.6018 156.573 23.6587 156.175 23.7013C155.777 23.744 155.378 23.7653 154.98 23.7653C153.97 23.7653 153.089 23.616 152.335 23.3173C151.596 23.0187 150.977 22.6133 150.479 22.1013C149.996 21.5751 149.633 20.9565 149.391 20.2453C149.164 19.5342 149.05 18.7662 149.05 17.9413ZM156.516 16.7253C156.502 16.4551 156.452 16.192 156.367 15.936C156.295 15.68 156.175 15.4525 156.004 15.2533C155.847 15.0542 155.642 14.8907 155.386 14.7627C155.143 14.6347 154.838 14.5707 154.468 14.5707C154.113 14.5707 153.807 14.6347 153.551 14.7627C153.295 14.8765 153.082 15.0328 152.911 15.232C152.74 15.4311 152.605 15.6658 152.506 15.936C152.42 16.192 152.356 16.4551 152.314 16.7253H156.516ZM175.465 18.496C175.465 19.2213 175.379 19.904 175.209 20.544C175.053 21.184 174.768 21.7458 174.355 22.2293C173.957 22.6987 173.41 23.0755 172.713 23.36C172.03 23.6302 171.163 23.7653 170.11 23.7653C169.143 23.7653 168.311 23.6515 167.614 23.424C166.917 23.1822 166.341 22.9048 165.886 22.592L166.995 20.0107C167.408 20.2525 167.849 20.4658 168.318 20.6507C168.787 20.8355 169.299 20.928 169.854 20.928C170.665 20.928 171.248 20.7288 171.603 20.3307C171.959 19.9325 172.137 19.264 172.137 18.3253V8.68265H175.465V18.496ZM188.036 23.0827C187.497 23.2391 186.799 23.3813 185.946 23.5093C185.092 23.6515 184.196 23.7227 183.258 23.7227C182.305 23.7227 181.508 23.5947 180.868 23.3387C180.243 23.0827 179.745 22.7271 179.375 22.272C179.006 21.8027 178.742 21.248 178.586 20.608C178.43 19.968 178.351 19.264 178.351 18.496V12.2453H181.53V18.112C181.53 19.136 181.665 19.8755 181.935 20.3307C182.206 20.7858 182.71 21.0133 183.45 21.0133C183.678 21.0133 183.919 21.0062 184.175 20.992C184.431 20.9635 184.659 20.9351 184.858 20.9067V12.2453H188.036V23.0827ZM194.242 21.184C194.825 21.184 195.237 21.1271 195.479 21.0133C195.721 20.8995 195.842 20.6791 195.842 20.352C195.842 20.096 195.685 19.8755 195.373 19.6907C195.059 19.4915 194.584 19.2711 193.944 19.0293C193.445 18.8445 192.99 18.6525 192.578 18.4533C192.179 18.2542 191.838 18.0195 191.554 17.7493C191.269 17.4648 191.049 17.1307 190.893 16.7467C190.736 16.3627 190.658 15.9005 190.658 15.36C190.658 14.3075 191.049 13.4755 191.831 12.864C192.613 12.2525 193.687 11.9467 195.053 11.9467C195.735 11.9467 196.389 12.0107 197.015 12.1387C197.641 12.2525 198.139 12.3805 198.509 12.5227L197.954 14.9973C197.584 14.8693 197.179 14.7555 196.738 14.656C196.312 14.5565 195.827 14.5067 195.287 14.5067C194.291 14.5067 193.794 14.784 193.794 15.3387C193.794 15.4667 193.815 15.5805 193.858 15.68C193.901 15.7795 193.986 15.8791 194.114 15.9787C194.242 16.064 194.413 16.1635 194.626 16.2773C194.853 16.3768 195.138 16.4907 195.479 16.6187C196.176 16.8747 196.752 17.1307 197.208 17.3867C197.662 17.6285 198.018 17.8987 198.274 18.1973C198.544 18.4818 198.729 18.8018 198.829 19.1573C198.942 19.5128 198.999 19.9253 198.999 20.3947C198.999 21.504 198.579 22.3431 197.741 22.912C196.915 23.4808 195.742 23.7653 194.221 23.7653C193.225 23.7653 192.393 23.68 191.725 23.5093C191.07 23.3387 190.615 23.1965 190.359 23.0827L190.893 20.5013C191.433 20.7147 191.987 20.8853 192.557 21.0133C193.125 21.1271 193.688 21.184 194.242 21.184ZM201.268 9.45065L204.447 8.93865V12.2453H208.266V14.8907H204.447V18.8373C204.447 19.5058 204.56 20.0391 204.788 20.4373C205.029 20.8355 205.506 21.0347 206.218 21.0347C206.559 21.0347 206.907 21.0062 207.263 20.9493C207.632 20.8782 207.967 20.7858 208.266 20.672L208.714 23.1467C208.33 23.3031 207.903 23.4382 207.434 23.552C206.964 23.6658 206.388 23.7227 205.706 23.7227C204.837 23.7227 204.119 23.6088 203.551 23.3813C202.981 23.1395 202.527 22.8125 202.186 22.4C201.844 21.9733 201.602 21.4613 201.46 20.864C201.332 20.2667 201.268 19.6053 201.268 18.88V9.45065ZM214.032 23.4667H210.853V12.2453H214.032V23.4667ZM214.331 9.00265C214.331 9.58577 214.139 10.048 213.755 10.3893C213.386 10.7165 212.944 10.88 212.432 10.88C211.92 10.88 211.472 10.7165 211.088 10.3893C210.719 10.048 210.533 9.58577 210.533 9.00265C210.533 8.41954 210.719 7.96444 211.088 7.63732C211.472 7.29599 211.92 7.12532 212.432 7.12532C212.944 7.12532 213.386 7.29599 213.755 7.63732C214.139 7.96444 214.331 8.41954 214.331 9.00265ZM222.525 24.32C222.979 24.5475 223.293 24.8178 223.464 25.1307C223.634 25.4435 223.719 25.7635 223.719 26.0907C223.719 26.7733 223.449 27.2925 222.909 27.648C222.368 28.0035 221.657 28.1813 220.776 28.1813C220.462 28.1813 220.149 28.1528 219.837 28.096C219.523 28.0533 219.211 27.9893 218.898 27.904L219.282 26.048C219.381 26.0765 219.559 26.1191 219.815 26.176C220.085 26.2471 220.349 26.2827 220.605 26.2827C220.803 26.2827 220.974 26.24 221.117 26.1547C221.273 26.0835 221.358 25.9485 221.373 25.7493C221.387 25.5787 221.315 25.4222 221.16 25.28C221.017 25.1378 220.782 25.0311 220.455 24.96L220.2 24.896C220.256 24.7111 220.334 24.4978 220.434 24.256C220.533 24.0285 220.633 23.8151 220.733 23.616C219.993 23.4738 219.353 23.232 218.813 22.8907C218.286 22.5351 217.845 22.1085 217.49 21.6107C217.149 21.0987 216.893 20.5227 216.722 19.8827C216.565 19.2427 216.487 18.5671 216.487 17.856C216.487 17.0453 216.616 16.2845 216.872 15.5733C217.141 14.848 217.525 14.2222 218.023 13.696C218.521 13.1555 219.125 12.7288 219.837 12.416C220.547 12.1031 221.358 11.9467 222.269 11.9467C222.866 11.9467 223.413 12.0035 223.912 12.1173C224.409 12.2168 224.893 12.3662 225.362 12.5653L224.701 15.104C224.402 14.9902 224.075 14.8907 223.719 14.8053C223.363 14.72 222.965 14.6773 222.525 14.6773C221.586 14.6773 220.882 14.9688 220.413 15.552C219.957 16.1351 219.73 16.9031 219.73 17.856C219.73 18.8658 219.944 19.648 220.37 20.2027C220.811 20.7573 221.571 21.0347 222.653 21.0347C223.037 21.0347 223.449 20.9991 223.89 20.928C224.331 20.8568 224.736 20.7431 225.106 20.5867L225.554 23.1893C225.227 23.3315 224.821 23.4525 224.338 23.552C223.869 23.6515 223.349 23.7155 222.781 23.744C222.723 23.8578 222.674 23.9645 222.632 24.064C222.589 24.1635 222.553 24.2488 222.525 24.32ZM231.434 21.248C231.746 21.248 232.045 21.2408 232.33 21.2267C232.614 21.2125 232.842 21.1911 233.012 21.1627V18.752C232.884 18.7235 232.692 18.6951 232.436 18.6667C232.18 18.6382 231.946 18.624 231.732 18.624C231.434 18.624 231.149 18.6453 230.879 18.688C230.623 18.7165 230.396 18.7805 230.196 18.88C229.997 18.9795 229.841 19.1147 229.727 19.2853C229.613 19.456 229.556 19.6693 229.556 19.9253C229.556 20.4231 229.719 20.7715 230.047 20.9707C230.388 21.1555 230.85 21.248 231.434 21.248ZM231.178 11.9467C232.116 11.9467 232.898 12.0533 233.524 12.2667C234.15 12.48 234.648 12.7858 235.018 13.184C235.402 13.5822 235.672 14.0658 235.828 14.6347C235.985 15.2035 236.063 15.8365 236.063 16.5333V23.1467C235.608 23.2462 234.975 23.36 234.164 23.488C233.354 23.6302 232.372 23.7013 231.22 23.7013C230.495 23.7013 229.834 23.6373 229.236 23.5093C228.653 23.3813 228.148 23.1751 227.722 22.8907C227.295 22.592 226.967 22.208 226.74 21.7387C226.513 21.2693 226.399 20.6933 226.399 20.0107C226.399 19.3565 226.527 18.8018 226.783 18.3467C227.053 17.8915 227.409 17.5288 227.85 17.2587C228.29 16.9885 228.796 16.7965 229.364 16.6827C229.933 16.5547 230.524 16.4907 231.135 16.4907C231.548 16.4907 231.91 16.512 232.223 16.5547C232.55 16.5831 232.813 16.6258 233.012 16.6827V16.384C233.012 15.8435 232.849 15.4098 232.522 15.0827C232.194 14.7555 231.626 14.592 230.815 14.592C230.274 14.592 229.741 14.6347 229.215 14.72C228.689 14.7911 228.234 14.8978 227.85 15.04L227.444 12.48C227.629 12.4231 227.857 12.3662 228.127 12.3093C228.412 12.2382 228.717 12.1813 229.044 12.1387C229.372 12.0818 229.713 12.0391 230.068 12.0107C230.438 11.968 230.807 11.9467 231.178 11.9467Z" fill="#005B67"/>
<path d="M53.1029 37.2693C53.2623 37.4685 53.4613 37.7323 53.7003 38.0608C53.9492 38.3794 54.2031 38.7378 54.4619 39.136C54.7207 39.5243 54.9746 39.9325 55.2235 40.3605C55.4823 40.7886 55.7013 41.2018 55.8805 41.6H54.2976C54.0986 41.2216 53.8795 40.8384 53.6405 40.4501C53.4116 40.0619 53.1776 39.6935 52.9387 39.3451C52.6997 38.9867 52.4608 38.6531 52.2219 38.3445C51.993 38.0359 51.7839 37.7671 51.5947 37.5381C51.4653 37.548 51.3309 37.5531 51.1915 37.5531C51.0621 37.5531 50.9277 37.5531 50.7883 37.5531H49.4891V41.6H48.0405V31.4005C48.4487 31.301 48.9018 31.2363 49.3995 31.2064C49.9072 31.1666 50.3701 31.1467 50.7883 31.1467C52.2418 31.1467 53.3469 31.4205 54.1035 31.968C54.8701 32.5155 55.2533 33.3319 55.2533 34.4171C55.2533 35.104 55.0692 35.6914 54.7008 36.1792C54.3424 36.667 53.8098 37.0304 53.1029 37.2693ZM50.9077 32.416C50.2906 32.416 49.8176 32.4309 49.4891 32.4608V36.3584H50.5195C51.0173 36.3584 51.4653 36.3335 51.8635 36.2837C52.2618 36.2339 52.5952 36.1394 52.864 36C53.1428 35.8606 53.3568 35.6664 53.5061 35.4176C53.6555 35.1587 53.7301 34.8203 53.7301 34.4021C53.7301 34.0139 53.6555 33.6903 53.5061 33.4315C53.3568 33.1726 53.1527 32.9685 52.8939 32.8192C52.645 32.6699 52.3463 32.5653 51.9979 32.5056C51.6594 32.4459 51.296 32.416 50.9077 32.416ZM58.7314 41.6H57.3426V33.8347H58.7314V41.6ZM58.0295 32.4309C57.7807 32.4309 57.5666 32.3512 57.3874 32.192C57.2182 32.0227 57.1335 31.7987 57.1335 31.52C57.1335 31.2413 57.2182 31.0222 57.3874 30.8629C57.5666 30.6936 57.7807 30.6091 58.0295 30.6091C58.2785 30.6091 58.4876 30.6936 58.6567 30.8629C58.8359 31.0222 58.9255 31.2413 58.9255 31.52C58.9255 31.7987 58.8359 32.0227 58.6567 32.192C58.4876 32.3512 58.2785 32.4309 58.0295 32.4309ZM67.9741 37.7173C67.9741 38.3346 67.8845 38.892 67.7053 39.3899C67.5261 39.8877 67.2722 40.3157 66.9437 40.6741C66.6252 41.0325 66.2418 41.3112 65.7938 41.5104C65.3458 41.6995 64.858 41.7941 64.3303 41.7941C63.8028 41.7941 63.3149 41.6995 62.8669 41.5104C62.4189 41.3112 62.0306 41.0325 61.7021 40.6741C61.3836 40.3157 61.1346 39.8877 60.9554 39.3899C60.7762 38.892 60.6866 38.3346 60.6866 37.7173C60.6866 37.1101 60.7762 36.5575 60.9554 36.0597C61.1346 35.552 61.3836 35.1189 61.7021 34.7605C62.0306 34.4021 62.4189 34.1283 62.8669 33.9392C63.3149 33.74 63.8028 33.6405 64.3303 33.6405C64.858 33.6405 65.3458 33.74 65.7938 33.9392C66.2418 34.1283 66.6252 34.4021 66.9437 34.7605C67.2722 35.1189 67.5261 35.552 67.7053 36.0597C67.8845 36.5575 67.9741 37.1101 67.9741 37.7173ZM66.5255 37.7173C66.5255 36.8413 66.3265 36.1493 65.9282 35.6416C65.5399 35.1239 65.0074 34.8651 64.3303 34.8651C63.6534 34.8651 63.1158 35.1239 62.7175 35.6416C62.3293 36.1493 62.1351 36.8413 62.1351 37.7173C62.1351 38.5934 62.3293 39.2903 62.7175 39.808C63.1158 40.3157 63.6534 40.5696 64.3303 40.5696C65.0074 40.5696 65.5399 40.3157 65.9282 39.808C66.3265 39.2903 66.5255 38.5934 66.5255 37.7173ZM79.7907 36.5077H81.2393V41.3461C81.1198 41.3859 80.9456 41.4307 80.7166 41.4805C80.4976 41.5303 80.2387 41.58 79.9401 41.6299C79.6513 41.6797 79.3328 41.7195 78.9843 41.7493C78.6358 41.7891 78.2825 41.8091 77.9241 41.8091C77.1973 41.8091 76.5353 41.6896 75.9379 41.4507C75.3406 41.2117 74.8278 40.8632 74.3998 40.4053C73.9717 39.9474 73.6382 39.3848 73.3993 38.7179C73.1702 38.0509 73.0558 37.2843 73.0558 36.4181C73.0558 35.552 73.1852 34.7854 73.4441 34.1184C73.7129 33.4414 74.0713 32.8739 74.5193 32.416C74.9673 31.9581 75.4899 31.6096 76.0873 31.3707C76.6945 31.1317 77.3417 31.0123 78.0286 31.0123C78.4965 31.0123 78.9097 31.0421 79.2681 31.1019C79.6364 31.1616 79.95 31.2312 80.2089 31.3109C80.4677 31.3906 80.6768 31.4702 80.8361 31.5499C81.0053 31.6295 81.1198 31.6893 81.1795 31.7291L80.7166 32.9387C80.4278 32.7495 80.0446 32.5952 79.5667 32.4757C79.0889 32.3463 78.6011 32.2816 78.1033 32.2816C77.5756 32.2816 77.0928 32.3762 76.6547 32.5653C76.2267 32.7544 75.8582 33.0283 75.5497 33.3867C75.251 33.7451 75.0171 34.1831 74.8478 34.7008C74.6785 35.2085 74.5939 35.781 74.5939 36.4181C74.5939 37.0354 74.6636 37.5979 74.803 38.1056C74.9523 38.6133 75.1713 39.0514 75.4601 39.4197C75.7587 39.7781 76.1221 40.0568 76.5502 40.256C76.9883 40.4551 77.5009 40.5547 78.0883 40.5547C78.5065 40.5547 78.8598 40.5347 79.1486 40.4949C79.4473 40.4451 79.6613 40.4003 79.7907 40.3605V36.5077ZM86.2848 33.6704C86.4043 33.6704 86.5387 33.6803 86.688 33.7003C86.8474 33.7102 87.0016 33.7301 87.1509 33.76C87.3003 33.7799 87.4347 33.8048 87.5541 33.8347C87.6836 33.8546 87.7781 33.8744 87.8379 33.8944L87.5989 35.104C87.4895 35.0642 87.3053 35.0194 87.0464 34.9696C86.7976 34.9099 86.474 34.88 86.0757 34.88C85.817 34.88 85.5581 34.9099 85.2992 34.9696C85.0504 35.0194 84.8861 35.0542 84.8064 35.0741V41.6H83.4176V34.1632C83.7461 34.0437 84.1543 33.9342 84.6421 33.8347C85.13 33.7251 85.6775 33.6704 86.2848 33.6704ZM91.8063 40.5995C92.1348 40.5995 92.4236 40.5944 92.6724 40.5845C92.9313 40.5646 93.1454 40.5347 93.3146 40.4949V38.1803C93.215 38.1304 93.0508 38.0907 92.8218 38.0608C92.6028 38.021 92.334 38.0011 92.0154 38.0011C91.8063 38.0011 91.5823 38.016 91.3434 38.0459C91.1145 38.0757 90.9004 38.1405 90.7012 38.24C90.5121 38.3296 90.3529 38.459 90.2234 38.6283C90.094 38.7875 90.0292 39.0016 90.0292 39.2704C90.0292 39.7682 90.1886 40.1166 90.5071 40.3157C90.8257 40.5048 91.2588 40.5995 91.8063 40.5995ZM91.6868 33.6405C92.2444 33.6405 92.7123 33.7152 93.0906 33.8645C93.4788 34.0039 93.7875 34.208 94.0164 34.4768C94.2554 34.7357 94.4246 35.0493 94.5242 35.4176C94.6238 35.776 94.6735 36.1742 94.6735 36.6123V41.4656C94.554 41.4855 94.3849 41.5154 94.1658 41.5552C93.9567 41.5851 93.7178 41.6149 93.449 41.6448C93.1802 41.6747 92.8865 41.6995 92.5679 41.7195C92.2593 41.7493 91.9507 41.7643 91.642 41.7643C91.2041 41.7643 90.8009 41.7195 90.4324 41.6299C90.0641 41.5403 89.7455 41.4008 89.4767 41.2117C89.2079 41.0126 88.9988 40.7538 88.8495 40.4352C88.7002 40.1166 88.6255 39.7333 88.6255 39.2853C88.6255 38.8573 88.7102 38.4888 88.8794 38.1803C89.0586 37.8717 89.2975 37.6227 89.5962 37.4336C89.8948 37.2445 90.2433 37.1051 90.6415 37.0155C91.0398 36.9259 91.4579 36.8811 91.8959 36.8811C92.0353 36.8811 92.1796 36.891 92.329 36.9109C92.4783 36.9208 92.6177 36.9408 92.7471 36.9707C92.8865 36.9906 93.006 37.0104 93.1055 37.0304C93.2051 37.0503 93.2748 37.0653 93.3146 37.0752V36.6869C93.3146 36.4579 93.2897 36.2339 93.2399 36.0149C93.1902 35.7859 93.1006 35.5869 92.9711 35.4176C92.8417 35.2384 92.6625 35.099 92.4335 34.9995C92.2145 34.8899 91.9258 34.8352 91.5674 34.8352C91.1094 34.8352 90.7062 34.8701 90.3578 34.9397C90.0193 34.9995 89.7654 35.0642 89.5962 35.1339L89.4319 33.984C89.6111 33.9043 89.9098 33.8296 90.3279 33.76C90.746 33.6803 91.199 33.6405 91.6868 33.6405ZM96.9802 34.0587C97.2988 33.979 97.7218 33.8944 98.2495 33.8048C98.7772 33.7152 99.3844 33.6704 100.071 33.6704C100.689 33.6704 101.201 33.76 101.61 33.9392C102.018 34.1085 102.341 34.3523 102.58 34.6709C102.829 34.9795 103.003 35.3528 103.103 35.7909C103.202 36.229 103.252 36.7118 103.252 37.2395V41.6H101.863V37.5381C101.863 37.0603 101.828 36.652 101.759 36.3136C101.699 35.9751 101.595 35.7013 101.445 35.4923C101.296 35.2832 101.097 35.1339 100.848 35.0443C100.599 34.9447 100.29 34.8949 99.922 34.8949C99.7727 34.8949 99.6183 34.8999 99.4591 34.9099C99.2998 34.9198 99.1455 34.9347 98.9962 34.9547C98.8568 34.9646 98.7274 34.9795 98.6079 34.9995C98.4984 35.0194 98.4188 35.0343 98.369 35.0443V41.6H96.9802V34.0587ZM110.573 35.4773C110.403 35.3379 110.16 35.2035 109.841 35.0741C109.522 34.9447 109.174 34.88 108.796 34.88C108.398 34.88 108.054 34.9547 107.765 35.104C107.487 35.2434 107.258 35.4424 107.078 35.7013C106.899 35.9502 106.77 36.2488 106.69 36.5973C106.61 36.9458 106.571 37.3191 106.571 37.7173C106.571 38.6232 106.795 39.3251 107.243 39.8229C107.691 40.3107 108.288 40.5547 109.035 40.5547C109.413 40.5547 109.727 40.5397 109.975 40.5099C110.235 40.4701 110.433 40.4302 110.573 40.3904V35.4773ZM110.573 30.2507L111.962 30.0117V41.376C111.643 41.4656 111.235 41.5552 110.737 41.6448C110.239 41.7344 109.667 41.7792 109.02 41.7792C108.422 41.7792 107.885 41.6846 107.407 41.4955C106.929 41.3063 106.521 41.0375 106.182 40.6891C105.844 40.3406 105.58 39.9175 105.391 39.4197C105.212 38.912 105.122 38.3445 105.122 37.7173C105.122 37.12 105.197 36.5725 105.346 36.0747C105.505 35.5768 105.734 35.1488 106.033 34.7904C106.332 34.432 106.695 34.1533 107.123 33.9541C107.561 33.755 108.059 33.6555 108.617 33.6555C109.065 33.6555 109.458 33.7152 109.796 33.8347C110.145 33.9541 110.403 34.0686 110.573 34.1781V30.2507ZM113.916 37.7323C113.916 37.0453 114.015 36.448 114.214 35.9403C114.414 35.4226 114.677 34.9944 115.006 34.656C115.334 34.3175 115.713 34.0637 116.141 33.8944C116.569 33.7251 117.007 33.6405 117.455 33.6405C118.5 33.6405 119.301 33.9691 119.859 34.6261C120.417 35.2733 120.695 36.2638 120.695 37.5979C120.695 37.6576 120.695 37.7373 120.695 37.8368C120.695 37.9264 120.69 38.011 120.681 38.0907H115.364C115.424 38.8971 115.658 39.5093 116.066 39.9275C116.475 40.3456 117.111 40.5547 117.978 40.5547C118.465 40.5547 118.874 40.5149 119.202 40.4352C119.54 40.3456 119.794 40.261 119.964 40.1813L120.158 41.3461C119.988 41.4357 119.69 41.5303 119.262 41.6299C118.844 41.7294 118.366 41.7792 117.828 41.7792C117.151 41.7792 116.564 41.6797 116.066 41.4805C115.579 41.2715 115.175 40.9877 114.857 40.6293C114.538 40.2709 114.299 39.8478 114.14 39.36C113.99 38.8622 113.916 38.3197 113.916 37.7323ZM119.247 36.9707C119.257 36.3435 119.098 35.8307 118.769 35.4325C118.45 35.0243 118.007 34.8203 117.44 34.8203C117.121 34.8203 116.837 34.885 116.589 35.0144C116.35 35.1339 116.146 35.2931 115.977 35.4923C115.807 35.6914 115.673 35.9203 115.573 36.1792C115.484 36.4381 115.424 36.7019 115.394 36.9707H119.247ZM131.165 35.4773C130.995 35.3379 130.751 35.2035 130.433 35.0741C130.114 34.9447 129.765 34.88 129.388 34.88C128.989 34.88 128.645 34.9547 128.357 35.104C128.078 35.2434 127.85 35.4424 127.67 35.7013C127.491 35.9502 127.361 36.2488 127.282 36.5973C127.202 36.9458 127.163 37.3191 127.163 37.7173C127.163 38.6232 127.387 39.3251 127.835 39.8229C128.283 40.3107 128.88 40.5547 129.627 40.5547C130.004 40.5547 130.318 40.5397 130.567 40.5099C130.826 40.4701 131.025 40.4302 131.165 40.3904V35.4773ZM131.165 30.2507L132.554 30.0117V41.376C132.235 41.4656 131.826 41.5552 131.329 41.6448C130.831 41.7344 130.258 41.7792 129.612 41.7792C129.014 41.7792 128.477 41.6846 127.999 41.4955C127.521 41.3063 127.113 41.0375 126.774 40.6891C126.435 40.3406 126.172 39.9175 125.983 39.4197C125.804 38.912 125.714 38.3445 125.714 37.7173C125.714 37.12 125.789 36.5725 125.938 36.0747C126.097 35.5768 126.326 35.1488 126.625 34.7904C126.924 34.432 127.286 34.1533 127.715 33.9541C128.153 33.755 128.651 33.6555 129.209 33.6555C129.657 33.6555 130.049 33.7152 130.388 33.8347C130.736 33.9541 130.995 34.0686 131.165 34.1781V30.2507ZM141.795 37.7173C141.795 38.3346 141.706 38.892 141.526 39.3899C141.347 39.8877 141.093 40.3157 140.765 40.6741C140.446 41.0325 140.063 41.3112 139.615 41.5104C139.167 41.6995 138.678 41.7941 138.151 41.7941C137.623 41.7941 137.136 41.6995 136.688 41.5104C136.24 41.3112 135.852 41.0325 135.523 40.6741C135.204 40.3157 134.956 39.8877 134.777 39.3899C134.597 38.892 134.508 38.3346 134.508 37.7173C134.508 37.1101 134.597 36.5575 134.777 36.0597C134.956 35.552 135.204 35.1189 135.523 34.7605C135.852 34.4021 136.24 34.1283 136.688 33.9392C137.136 33.74 137.623 33.6405 138.151 33.6405C138.678 33.6405 139.167 33.74 139.615 33.9392C140.063 34.1283 140.446 34.4021 140.765 34.7605C141.093 35.1189 141.347 35.552 141.526 36.0597C141.706 36.5575 141.795 37.1101 141.795 37.7173ZM140.347 37.7173C140.347 36.8413 140.147 36.1493 139.749 35.6416C139.361 35.1239 138.828 34.8651 138.151 34.8651C137.474 34.8651 136.937 35.1239 136.539 35.6416C136.15 36.1493 135.956 36.8413 135.956 37.7173C135.956 38.5934 136.15 39.2903 136.539 39.808C136.937 40.3157 137.474 40.5696 138.151 40.5696C138.828 40.5696 139.361 40.3157 139.749 39.808C140.147 39.2903 140.347 38.5934 140.347 37.7173ZM154.388 41.6C154.169 41.2317 153.915 40.8184 153.627 40.3605C153.347 39.9026 153.044 39.4296 152.716 38.9419C152.387 38.444 152.044 37.9413 151.685 37.4336C151.337 36.9259 150.988 36.4381 150.64 35.9701C150.291 35.4923 149.953 35.0443 149.625 34.6261C149.296 34.208 148.992 33.8397 148.714 33.5211V41.6H147.295V31.2512H148.445C148.912 31.749 149.41 32.3314 149.938 32.9984C150.476 33.6555 151.003 34.3374 151.521 35.0443C152.048 35.7411 152.541 36.428 152.999 37.1051C153.467 37.7821 153.86 38.3843 154.179 38.912V31.2512H155.598V41.6H154.388ZM164.924 37.7173C164.924 38.3346 164.834 38.892 164.655 39.3899C164.476 39.8877 164.222 40.3157 163.893 40.6741C163.575 41.0325 163.191 41.3112 162.743 41.5104C162.295 41.6995 161.808 41.7941 161.28 41.7941C160.753 41.7941 160.265 41.6995 159.817 41.5104C159.369 41.3112 158.98 41.0325 158.652 40.6741C158.334 40.3157 158.084 39.8877 157.905 39.3899C157.726 38.892 157.636 38.3346 157.636 37.7173C157.636 37.1101 157.726 36.5575 157.905 36.0597C158.084 35.552 158.334 35.1189 158.652 34.7605C158.98 34.4021 159.369 34.1283 159.817 33.9392C160.265 33.74 160.753 33.6405 161.28 33.6405C161.808 33.6405 162.295 33.74 162.743 33.9392C163.191 34.1283 163.575 34.4021 163.893 34.7605C164.222 35.1189 164.476 35.552 164.655 36.0597C164.834 36.5575 164.924 37.1101 164.924 37.7173ZM163.475 37.7173C163.475 36.8413 163.277 36.1493 162.878 35.6416C162.49 35.1239 161.957 34.8651 161.28 34.8651C160.604 34.8651 160.066 35.1239 159.667 35.6416C159.279 36.1493 159.085 36.8413 159.085 37.7173C159.085 38.5934 159.279 39.2903 159.667 39.808C160.066 40.3157 160.604 40.5696 161.28 40.5696C161.957 40.5696 162.49 40.3157 162.878 39.808C163.277 39.2903 163.475 38.5934 163.475 37.7173ZM169.745 33.6704C169.865 33.6704 169.999 33.6803 170.148 33.7003C170.308 33.7102 170.462 33.7301 170.611 33.76C170.761 33.7799 170.895 33.8048 171.014 33.8347C171.145 33.8546 171.238 33.8744 171.298 33.8944L171.059 35.104C170.95 35.0642 170.766 35.0194 170.507 34.9696C170.258 34.9099 169.935 34.88 169.536 34.88C169.278 34.88 169.019 34.9099 168.759 34.9696C168.511 35.0194 168.347 35.0542 168.267 35.0741V41.6H166.878V34.1632C167.206 34.0437 167.615 33.9342 168.102 33.8347C168.591 33.7251 169.138 33.6704 169.745 33.6704ZM173.938 33.8347H176.88V34.9995H173.938V38.5835C173.938 38.9717 173.968 39.2952 174.028 39.5541C174.087 39.803 174.177 40.0021 174.297 40.1515C174.416 40.2909 174.565 40.3904 174.745 40.4501C174.924 40.5099 175.133 40.5397 175.372 40.5397C175.79 40.5397 176.123 40.4949 176.372 40.4053C176.63 40.3058 176.81 40.236 176.91 40.1963L177.179 41.3461C177.039 41.4158 176.795 41.5005 176.447 41.6C176.098 41.7095 175.7 41.7643 175.252 41.7643C174.724 41.7643 174.286 41.6995 173.938 41.5701C173.599 41.4307 173.326 41.2267 173.117 40.9579C172.908 40.6891 172.758 40.3605 172.669 39.9723C172.589 39.5741 172.549 39.116 172.549 38.5984V31.6693L173.938 31.4304V33.8347ZM178.068 37.7323C178.068 37.0453 178.167 36.448 178.367 35.9403C178.565 35.4226 178.83 34.9944 179.158 34.656C179.487 34.3175 179.865 34.0637 180.293 33.8944C180.721 33.7251 181.16 33.6405 181.607 33.6405C182.653 33.6405 183.454 33.9691 184.012 34.6261C184.569 35.2733 184.848 36.2638 184.848 37.5979C184.848 37.6576 184.848 37.7373 184.848 37.8368C184.848 37.9264 184.843 38.011 184.833 38.0907H179.517C179.577 38.8971 179.81 39.5093 180.219 39.9275C180.626 40.3456 181.264 40.5547 182.13 40.5547C182.618 40.5547 183.026 40.5149 183.355 40.4352C183.693 40.3456 183.947 40.261 184.116 40.1813L184.31 41.3461C184.141 41.4357 183.842 41.5303 183.414 41.6299C182.996 41.7294 182.518 41.7792 181.981 41.7792C181.303 41.7792 180.716 41.6797 180.219 41.4805C179.73 41.2715 179.327 40.9877 179.009 40.6293C178.69 40.2709 178.451 39.8478 178.292 39.36C178.143 38.8622 178.068 38.3197 178.068 37.7323ZM183.399 36.9707C183.409 36.3435 183.25 35.8307 182.922 35.4325C182.603 35.0243 182.16 34.8203 181.593 34.8203C181.274 34.8203 180.99 34.885 180.741 35.0144C180.502 35.1339 180.298 35.2931 180.129 35.4923C179.959 35.6914 179.825 35.9203 179.726 36.1792C179.636 36.4381 179.577 36.7019 179.547 36.9707H183.399Z" fill="#005B67"/>
<path d="M19.5373 48C12.183 48 3.34482 43.9749 1.60001 32.4676V7.09812L6.9649 0L7.04643 0.0668059C11.2699 3.3904 15.2161 3.40709 19.8961 0.100209L19.9613 0.0501044L20.0266 0.100209C24.2011 3.40709 28.2614 3.40709 32.7784 0.133612L32.8598 0.0668059L38.0291 7.06471V7.09812L38.0454 32.3341C37.6541 36.9102 35.583 40.8351 32.0446 43.691C28.8321 46.2964 24.6413 47.8163 20.2385 47.9666C20.0102 47.9833 19.782 48 19.5373 48ZM1.8283 7.18163V32.4342C3.60572 44.142 12.8516 48 20.2222 47.7494C28.0984 47.4822 36.9529 42.5387 37.8171 32.3341L37.8008 7.14822L32.811 0.400835C28.2614 3.67433 24.1684 3.65762 19.945 0.350731C15.3139 3.60752 11.2046 3.59082 6.99751 0.317328L1.8283 7.18163Z" fill="#005B67"/>
<path d="M22.554 24.1336L22.3584 24.0167L28.506 12.242L34.621 23.9832L34.4253 24.0834L28.506 12.7264L22.554 24.1336Z" fill="#005B67"/>
<path d="M4.58411 24.1336L4.38843 24.0167L10.536 12.242L16.6673 23.9832L16.4554 24.0834L10.536 12.7264L4.58411 24.1336Z" fill="#005B67"/>
<path fill-rule="evenodd" clip-rule="evenodd" d="M5.23639 17.4031C6.54093 14.7977 7.82915 13.1776 9.52504 13.4949L7.84546 12.5263C14.0583 4.45944 26.223 4.84357 31.7184 12.5429L29.7453 13.662C31.4412 13.3613 32.7294 14.9647 34.0177 17.5366L34.0339 17.5868H34.0502L36.1375 16.9855C32.5664 0.0669554 7.66609 -0.150162 3.36113 16.8853L5.23639 17.4031ZM14.5149 36.0586V39.0982C14.3844 39.2319 13.618 40.234 12.2156 40.117H12.183C17.1729 42.7058 22.179 42.7058 27.1689 40.1338H27.071C25.6687 40.2507 24.9022 39.2486 24.7717 39.115V36.0753C25.0326 36.9605 28.2288 37.8958 31.3923 37.3446L31.4249 40.7017C23.5977 46.7643 15.7542 46.7643 7.91069 40.6849L7.94331 37.378L7.91069 37.3113H7.94331V37.2611L8.00853 37.3113C11.1231 37.8624 14.254 36.9438 14.5149 36.0586ZM19.5536 29.0106V26.6724V29.0106ZM22.3584 24.2173H34.7351C32.8436 27.9417 23.7607 28.5095 22.3584 24.2173ZM18.7872 30.8812C18.7709 31.0315 18.8525 31.1818 19.0481 31.1651L18.9503 31.2151C18.722 31.3822 18.7057 31.8332 19.0481 31.7998L18.9503 31.8498C18.722 32.0169 18.7057 32.4678 19.0481 32.4343L18.9503 32.4845C18.722 32.6515 18.7057 33.1024 19.0481 33.069L18.9503 33.1191C18.722 33.2862 18.7057 33.7371 19.0481 33.7037L18.9503 33.7538C18.722 33.9209 18.7057 34.3717 19.0481 34.3383L18.9503 34.3885C18.7383 34.5555 18.6731 34.9898 19.0971 34.9229L19.0318 34.9563C18.9013 34.973 18.7547 35.0064 18.6404 35.0398C18.4611 35.0732 18.4285 35.3739 18.6567 35.4073C18.51 35.424 18.5263 35.6912 18.6404 35.8081C19.0318 36.259 20.157 36.259 20.4994 35.7914C20.6135 35.6411 20.6625 35.424 20.5157 35.4073C20.744 35.3739 20.744 35.0899 20.4994 35.0231C20.3853 34.9898 20.2875 34.973 20.1733 34.9563C20.369 34.7726 20.4016 34.4553 20.1407 34.3383C20.3526 34.1713 20.4016 33.8039 20.1407 33.7037C20.3526 33.5366 20.4016 33.1693 20.1407 33.069C20.3526 32.9021 20.4016 32.5346 20.1407 32.4343C20.3526 32.2674 20.4016 31.8999 20.1407 31.7998C20.3526 31.6327 20.4016 31.2653 20.1407 31.1651C20.2385 31.0816 20.3038 30.9647 20.3201 30.8644H20.4994V30.7141L22.6356 31.0315L21.8855 34.7225L27.4461 36.1756L28.2451 29.9124C28.6038 27.9083 24.5598 26.7726 23.1574 28.71V28.6097L20.5157 29.1108V29.9959V28.9605H20.4016V26.7392H20.4342C20.7603 26.7392 20.7603 26.7392 20.8093 26.7893C21.0212 26.6557 21.0212 26.4553 21.1354 26.2214C21.5594 25.9041 21.6735 25.687 21.168 25.5366C21.1354 25.2361 21.2658 25.0022 21.3637 24.7017C21.6572 24.6515 22.016 24.9187 21.7713 24.2841C21.3148 23.8832 21.3474 23.7329 21.4615 23.0982C21.592 23.0816 21.592 23.115 21.6898 23.2151C22.0975 23.1818 22.2606 22.7475 22.603 22.5137C22.6519 22.5305 22.7008 22.5638 22.7661 22.5805C22.7661 22.9313 22.7008 23.2319 23.0433 23.3822C23.0433 23.3989 23.0433 23.4156 23.0433 23.4323C23.2553 23.5158 23.4672 23.616 23.6466 23.4323C24.2662 23.4657 24.5108 23.6494 25.0653 23.9835C25.2121 23.9835 25.3588 23.9835 25.5056 23.9835C25.7175 23.8832 25.9458 23.7663 26.1579 23.6661C26.4676 23.6494 28.1962 23.9167 28.2614 23.9835C28.294 23.9835 28.3266 24.0001 28.3756 24.0001C28.4082 24.0001 28.4244 24.0169 28.4571 24.0169C29.1583 24.0169 29.8757 24.0169 30.577 24.0169C30.8379 24.0001 31.0988 24.0001 31.3597 24.0001H31.376C31.5716 23.616 31.6206 23.1985 31.327 22.8644C31.0335 22.831 31.0335 22.831 30.9846 22.7809C31.001 22.6807 31.001 22.6807 31.0988 22.5972C31.2782 22.2465 31.0988 22.1296 30.8379 21.9292C30.4955 20.9438 30.3324 19.9083 29.9899 18.9229C29.9247 18.3717 29.8757 17.8039 29.7127 17.2694C29.4192 16.8186 29.1093 16.3843 28.8321 15.9333C28.7669 15.4657 28.6853 15.2653 28.1962 15.1651C28.082 14.8978 27.9516 14.8644 27.707 14.7475L27.5439 14.6807C26.9569 14.5805 26.3046 14.614 25.7665 14.2966C25.1469 14.2966 24.5435 13.879 24.0706 14.4302C23.451 14.4636 22.8313 14.5137 22.2279 14.5471C22.016 14.4135 21.9181 14.4135 21.5594 14.1964C21.5104 14.2131 21.5104 14.2131 21.4289 14.3802C21.2006 14.3968 20.9724 14.4135 20.7603 14.4135C20.6788 14.4803 20.5484 14.5471 20.4506 14.5471V13.1442C20.6788 12.6097 21.0539 12.3259 21.6083 12.3259H25.6034L29.8269 12.6598C30.3161 12.6432 30.4302 12.0586 29.9899 11.8916L27.8701 10.973C26.8753 10.4386 26.8753 11.3571 26.1905 11.4574L20.3526 11.474V9.48658L19.5536 7.24858V14.4636V7.24858L18.7547 9.48658V11.4908L12.9494 11.4574C12.2646 11.3571 12.2809 10.4386 11.3514 10.9898L9.23153 11.9083C8.80755 12.0753 8.9054 12.6598 9.39459 12.6766L13.618 12.3425H17.6131C18.1349 12.3425 18.5263 12.5931 18.7383 13.0941V13.8457L18.5753 13.6786C18.3958 13.6452 18.2165 13.5785 18.0534 13.4782C17.7925 13.6452 17.6131 13.5283 17.3849 13.8457C16.9445 13.9124 16.4227 13.2945 16.2271 12.927C15.8357 12.927 14.5475 13.0774 14.3681 13.2779C13.5527 13.2779 13.2267 14.5305 12.9984 15.0982C12.607 15.3822 12.6396 16.0336 12.3787 16.4343L12.2809 16.6348C12.2156 16.735 12.1504 16.8519 12.1015 16.9521C12.0526 17.687 11.2046 18.1881 10.8296 18.7893C10.8133 19.0231 10.797 19.1067 10.9763 19.2402C10.9274 19.8582 10.3893 20.209 9.94902 20.5429C9.34567 21.3948 9.59027 21.3279 8.53035 21.3613C8.48142 21.4282 8.4325 21.4782 8.38358 21.5451C8.35096 22.2966 8.22051 22.1462 7.81285 22.5471C7.78023 22.7977 7.74763 23.0649 7.71501 23.3154C7.97591 23.3154 8.13899 23.2319 8.31836 23.0482C8.35096 23.0482 8.36727 23.0482 8.39989 23.0482C8.41619 23.1651 8.4325 23.2987 8.4325 23.4156C8.53035 23.4323 8.61187 23.449 8.70972 23.4657C8.97062 23.8999 9.37829 23.4991 9.54135 23.9167C9.68812 24.0336 10.7154 24.0169 10.8622 23.9167C10.8785 23.8332 10.8785 23.8332 10.9926 23.7329C11.4329 23.7329 11.9547 23.3655 12.3135 23.1316C12.6885 22.5972 13.2756 22.5638 13.7485 22.163C13.9441 21.7121 14.3193 21.3613 14.8084 21.378L15.0041 21.4282C15.3954 21.4282 15.7379 21.1275 16.0966 20.9772C16.8957 20.927 17.3034 20.9438 16.7979 21.8123C16.6185 22.0127 16.6185 22.0127 15.7379 22.831C15.5585 23.2987 15.5259 23.6829 15.4933 24.1671H4.38845C5.57884 27.8415 12.3625 27.9584 15.5095 25.6035C15.7705 25.6369 16.064 25.6703 16.2923 25.8039C16.3249 26.1213 16.1618 26.2382 16.3902 26.4886C16.8304 26.4886 16.8957 25.687 17.3685 26.2548C17.6784 26.2214 17.8903 25.8206 18.1024 25.5868C18.1513 25.5868 18.2165 25.5868 18.2654 25.5868C18.3795 25.7706 18.4122 25.8039 18.6079 25.8707L18.7709 25.9709V28.9772H18.6567V29.1108L16.0151 28.6097V28.7434C14.6453 26.7559 10.5361 27.8916 10.8948 29.9124L11.6938 36.1756L17.2544 34.7225L16.488 31.0649L18.6242 30.7475V30.8978H18.7872V30.8812ZM19.9939 1.28616C24.0543 4.49284 28.2614 4.50954 32.6316 1.35297L37.2138 7.91665L37.2301 32.1004C35.681 50.4386 5.70929 53.3446 2.51318 32.1839V7.93334L7.17688 1.33626C11.2536 4.55965 15.5422 4.44274 19.9939 1.28616Z" fill="#005B67"/>
<path fill-rule="evenodd" clip-rule="evenodd" d="M19.5537 29.3443C19.8798 29.3443 20.157 29.6115 20.157 29.9456C20.157 30.2796 19.8961 30.5468 19.5537 30.5468C19.2275 30.5468 18.9503 30.2796 18.9503 29.9456C18.9503 29.6115 19.2275 29.3443 19.5537 29.3443Z" fill="#005B67"/>
</g>
<defs>
<clipPath id="clip0">
<rect width="240" height="48" fill="white"/>
</clipPath>
</defs>
</svg>
